name rise36.2859peak64.2979fall75.1499.mot
datacolumns 19
datarows 14
range 14.05328500000000 14.07494900000000
endheader
time	ground_force1_vx	ground_force1_vy	ground_force1_vz	ground_force1_px	ground_force1_py	ground_force1_pz	ground_force2_vx	ground_force2_vy	ground_force2_vz	ground_force2_px	ground_force2_py	ground_force2_pz	ground_torque1_x	ground_torque1_y	ground_torque1_z	ground_torque2_x	ground_torque2_y	ground_torque2_z	
14.05328500000000	-45.83980500000000	817.23212500000000	64.26718700000001	0.20904700000000	0.00000000000000	0.11384800000000	-6.86491300000000	20.51307700000000	4.63786600000000	0.00000000000000	0.00000000000000	0.00000000000000	0.00000000000000	35.85450500000000	0.00000000000000	0.00000000000000	1.77837500000000	0.00000000000000	
14.05494800000000	-46.02602800000000	814.69877399999996	64.14160300000000	0.20831700000000	0.00000000000000	0.11385000000000	-8.30683200000000	26.16720700000000	5.71085000000000	0.42881200000000	0.00000000000000	-0.07606900000000	0.00000000000000	35.70129800000000	0.00000000000000	0.00000000000000	4.02279200000000	0.00000000000000	
14.05661300000000	-46.22193200000000	812.03668000000005	63.99135900000000	0.20758100000000	0.00000000000000	0.11384900000000	-9.71342500000000	32.18734100000000	6.79281900000000	0.43126200000000	0.00000000000000	-0.07710800000000	0.00000000000000	35.54271700000000	0.00000000000000	0.00000000000000	4.82259300000000	0.00000000000000	
14.05827900000000	-46.42786600000000	809.24655199999995	63.81618500000000	0.20684000000000	0.00000000000000	0.11384700000000	-11.03215900000000	38.45441800000000	7.85014900000000	0.43351200000000	0.00000000000000	-0.07805000000000	0.00000000000000	35.37885100000000	0.00000000000000	0.00000000000000	5.61677900000000	0.00000000000000	
14.05994500000000	-46.64414400000000	806.32913299999996	63.61585900000000	0.20609300000000	0.00000000000000	0.11384300000000	-12.21572600000000	44.85234300000000	8.85166000000000	0.43559400000000	0.00000000000000	-0.07890800000000	0.00000000000000	35.20979000000000	0.00000000000000	0.00000000000000	6.38366000000000	0.00000000000000	
14.06161500000000	-46.87103900000000	803.28518599999995	63.39020900000000	0.20534200000000	0.00000000000000	0.11383600000000	-13.22516900000000	51.27679500000000	9.77070600000000	0.43753300000000	0.00000000000000	-0.07969700000000	0.00000000000000	35.03563600000000	0.00000000000000	0.00000000000000	7.10435200000000	0.00000000000000	
14.06328400000000	-47.10878500000000	800.11549000000002	63.13910800000000	0.20458500000000	0.00000000000000	0.11382700000000	-14.03198100000000	57.64203300000000	10.58665300000000	0.43935100000000	0.00000000000000	-0.08042500000000	0.00000000000000	34.85649400000000	0.00000000000000	0.00000000000000	7.76385600000000	0.00000000000000	
14.06494900000000	-47.35757100000000	796.82083100000000	62.86248000000000	0.20382400000000	0.00000000000000	0.11381500000000	-14.61906300000000	63.88518700000000	11.28566900000000	0.44106500000000	0.00000000000000	-0.08110100000000	0.00000000000000	34.67247600000000	0.00000000000000	0.00000000000000	8.35166500000000	0.00000000000000	
14.06661700000000	-47.61754200000000	793.40199299999995	62.56029800000000	0.20305900000000	0.00000000000000	0.11380100000000	-14.98061000000000	69.96801700000000	11.86083100000000	0.44269000000000	0.00000000000000	-0.08173200000000	0.00000000000000	34.48369600000000	0.00000000000000	0.00000000000000	8.86191000000000	0.00000000000000	
14.06828500000000	-47.88879500000000	789.85974999999996	62.23257900000000	0.20228900000000	0.00000000000000	0.11378300000000	-15.12109200000000	75.87634000000000	12.31164700000000	0.44423800000000	0.00000000000000	-0.08232300000000	0.00000000000000	34.29027600000000	0.00000000000000	0.00000000000000	9.29310700000000	0.00000000000000	
14.06994700000000	-48.17138200000000	786.19486300000005	61.87939200000000	0.20151500000000	0.00000000000000	0.11376200000000	-15.05355600000000	81.61757400000000	12.64314000000000	0.44571700000000	0.00000000000000	-0.08287900000000	0.00000000000000	34.09233700000000	0.00000000000000	0.00000000000000	9.64758200000000	0.00000000000000	
14.07161200000000	-48.46529900000000	782.40806799999996	61.50084800000000	0.20073700000000	0.00000000000000	0.11373800000000	-14.79751700000000	87.21693000000000	12.86462500000000	0.44713800000000	0.00000000000000	-0.08340500000000	0.00000000000000	33.89000700000000	0.00000000000000	0.00000000000000	9.93068400000000	0.00000000000000	
14.07328200000000	-48.77049400000000	778.50007400000004	61.09710600000000	0.19995600000000	0.00000000000000	0.11371100000000	-14.37667900000000	92.71278599999999	12.98835300000000	0.44850800000000	0.00000000000000	-0.08390200000000	0.00000000000000	33.68341100000000	0.00000000000000	0.00000000000000	10.14988800000000	0.00000000000000	
14.07494900000000	-49.08685900000000	774.47155499999997	60.66837000000000	0.19917200000000	0.00000000000000	0.11368000000000	-13.81669600000000	98.15178800000000	13.02814500000000	0.44983100000000	0.00000000000000	-0.08437500000000	0.00000000000000	33.47267900000000	0.00000000000000	0.00000000000000	10.31387100000000	0.00000000000000	
